<svg width="20" height="20" viewBox="0 0 20 20" fill="none" xmlns="http://www.w3.org/2000/svg">
<g clip-path="url(#clip0_3_130)">
<path d="M18.3333 9.99996H16.2666C15.9024 9.99918 15.548 10.1177 15.2576 10.3374C14.9671 10.5572 14.7566 10.866 14.6583 11.2166L12.7 18.1833C12.6873 18.2266 12.661 18.2646 12.625 18.2916C12.5889 18.3187 12.545 18.3333 12.5 18.3333C12.4549 18.3333 12.411 18.3187 12.375 18.2916C12.3389 18.2646 12.3126 18.2266 12.3 18.1833L7.69996 1.81663C7.68734 1.77335 7.66102 1.73534 7.62496 1.70829C7.5889 1.68125 7.54504 1.66663 7.49996 1.66663C7.45488 1.66663 7.41102 1.68125 7.37496 1.70829C7.3389 1.73534 7.31258 1.77335 7.29996 1.81663L5.34163 8.78329C5.24368 9.13259 5.03444 9.44039 4.74568 9.65997C4.45691 9.87955 4.10439 9.99892 3.74163 9.99996H1.66663" stroke="#6A7282" stroke-width="1.66667" stroke-linecap="round" stroke-linejoin="round"/>
</g>
<defs>
<clipPath id="clip0_3_130">
<rect width="20" height="20" fill="white"/>
</clipPath>
</defs>
</svg>
